<?xml version="1.0" standalone="no"?>
<!DOCTYPE svg PUBLIC "-//W3C//DTD SVG 20010904//EN"
 "http://www.w3.org/TR/2001/REC-SVG-20010904/DTD/svg10.dtd">
<svg version="1.0" xmlns="http://www.w3.org/2000/svg"
 width="160.000000pt" height="160.000000pt" viewBox="0 0 160.000000 160.000000"
 preserveAspectRatio="xMidYMid meet">
<metadata>
Created by potrace 1.11, written by Peter Selinger 2001-2013
</metadata>
<g transform="translate(0.000000,160.000000) scale(0.100000,-0.100000)"
fill="#000000" stroke="none">
<path d="M140 1152 c0 -4 16 -23 35 -42 l35 -34 0 -275 0 -275 -37 -38 -37
-38 124 0 124 0 -42 43 -42 43 2 220 3 219 99 -177 c54 -98 102 -178 106 -178
4 0 52 80 106 178 l99 177 3 -219 2 -220 -42 -43 -42 -43 159 0 159 0 -42 43
-42 43 0 269 0 269 42 43 42 43 -67 0 c-38 0 -67 -4 -67 -10 0 -5 6 -10 13
-10 9 0 14 -12 15 -30 1 -35 2 -35 -43 -13 -25 12 -35 23 -35 40 0 18 -5 23
-27 23 -26 0 -35 -13 -108 -145 -44 -80 -82 -145 -85 -145 -3 0 -41 65 -85
145 l-80 145 -122 0 c-68 0 -123 -4 -123 -8z"/>
<path d="M980 1068 l0 -92 53 52 53 52 87 0 c48 0 87 -4 87 -8 0 -5 -52 -119
-116 -253 -64 -134 -129 -272 -145 -306 l-28 -63 244 0 245 0 0 85 c0 47 -4
85 -8 85 -4 0 -28 -20 -52 -45 l-44 -45 -89 0 c-67 0 -88 3 -84 13 3 6 68 146
146 310 78 163 141 299 141 302 0 3 -110 5 -245 5 l-245 0 0 -92z"/>
</g>
</svg>
