<?xml version="1.0" standalone="no"?>
<!DOCTYPE svg PUBLIC "-//W3C//DTD SVG 20010904//EN"
 "http://www.w3.org/TR/2001/REC-SVG-20010904/DTD/svg10.dtd">
<svg version="1.0" xmlns="http://www.w3.org/2000/svg"
 width="260.000000pt" height="260.000000pt" viewBox="0 0 260.000000 260.000000"
 preserveAspectRatio="xMidYMid meet">
<metadata>
Created by potrace 1.11, written by Peter Selinger 2001-2013
</metadata>
<g transform="translate(0.000000,260.000000) scale(0.100000,-0.100000)"
fill="#000000" stroke="none">
<path d="M1015 2593 c-87 -22 -225 -73 -298 -109 -133 -66 -231 -137 -347
-254 -161 -160 -258 -317 -331 -535 l-34 -100 0 -295 0 -295 34 -100 c71 -210
165 -367 310 -517 155 -161 327 -270 546 -345 l110 -38 295 0 295 0 100 34
c223 75 372 167 535 331 164 163 256 312 331 535 l34 100 0 295 0 295 -38 110
c-75 219 -184 391 -345 546 -150 145 -308 240 -517 310 l-100 34 -280 1 c-154
1 -289 0 -300 -3z m495 -28 c139 -24 198 -43 335 -109 257 -125 451 -308 578
-546 71 -132 103 -228 146 -438 14 -69 14 -275 0 -344 -42 -206 -75 -306 -140
-428 -96 -177 -256 -354 -419 -462 -171 -112 -278 -154 -538 -207 -69 -14
-275 -14 -344 0 -260 53 -365 94 -538 208 -155 101 -314 273 -406 437 -116
207 -164 390 -164 624 0 195 31 344 103 503 112 249 297 461 517 594 142 85
289 141 445 168 99 18 323 17 425 0z"/>
<path d="M1285 2239 c-152 -4 -238 -11 -277 -22 -31 -9 -98 -22 -150 -28 -139
-18 -286 -69 -357 -124 -63 -48 -121 -125 -121 -160 0 -41 22 -48 79 -25 48
18 160 43 322 69 37 6 129 11 205 12 77 0 162 4 189 9 28 5 123 12 212 16 194
8 226 1 216 -50 -15 -87 -129 -269 -263 -421 -152 -172 -226 -260 -290 -345
-75 -100 -143 -180 -261 -304 -47 -50 -94 -103 -103 -118 -10 -16 -51 -53 -92
-83 -90 -68 -104 -87 -104 -143 0 -57 11 -75 62 -102 115 -60 281 -76 808 -75
l425 1 127 32 c69 18 137 32 150 32 13 0 28 4 33 8 14 9 52 126 59 179 10 74
-32 97 -136 74 -54 -12 -120 -25 -273 -52 -107 -19 -159 -22 -477 -23 -196 0
-360 3 -364 7 -5 4 -4 14 1 21 58 79 87 128 96 161 9 32 41 70 167 195 87 86
198 188 248 227 87 69 197 188 257 276 42 62 83 146 149 302 94 222 118 291
118 344 0 74 -17 89 -125 106 -94 16 -164 16 -530 4z m609 -119 c0 -45 -14
-86 -76 -230 -41 -96 -85 -201 -98 -234 -52 -131 -208 -328 -327 -411 -37 -27
-111 -89 -163 -139 -53 -50 -130 -123 -172 -163 -42 -39 -108 -117 -148 -173
-64 -90 -121 -142 -137 -126 -14 13 12 60 61 113 90 97 145 163 170 201 13 20
72 80 131 132 182 161 381 352 426 410 24 30 67 100 95 155 28 55 69 134 92
175 23 42 47 105 55 140 42 186 50 211 72 208 17 -3 20 -10 19 -58z m-264 -23
c14 -7 26 -20 28 -29 4 -19 -30 -24 -223 -33 -71 -4 -164 -11 -205 -17 -41 -5
-165 -13 -275 -18 -202 -8 -315 -24 -437 -61 -73 -23 -94 -19 -78 11 26 48
170 87 385 105 94 8 242 21 330 29 286 28 438 32 475 13z m457 -1563 c15 -41
-28 -62 -178 -88 -199 -35 -438 -48 -774 -44 -314 4 -322 5 -400 31 -44 14
-105 32 -135 39 -36 9 -56 19 -58 30 -5 24 32 32 67 14 17 -9 55 -16 89 -16
32 0 102 -9 156 -20 92 -20 113 -20 487 -11 398 10 461 16 629 61 85 23 109
24 117 4z"/>
</g>
</svg>
