<?xml version="1.0" standalone="no"?>
<!DOCTYPE svg PUBLIC "-//W3C//DTD SVG 20010904//EN"
 "http://www.w3.org/TR/2001/REC-SVG-20010904/DTD/svg10.dtd">
<svg version="1.0" xmlns="http://www.w3.org/2000/svg"
 width="260.000000pt" height="260.000000pt" viewBox="0 0 260.000000 260.000000"
 preserveAspectRatio="xMidYMid meet">
<metadata>
Created by potrace 1.11, written by Peter Selinger 2001-2013
</metadata>
<g transform="translate(0.000000,260.000000) scale(0.100000,-0.100000)"
fill="#000000" stroke="none">
<path d="M0 1300 l0 -1300 306 0 c275 0 306 2 300 16 -3 9 -6 20 -6 25 0 4 -7
6 -15 3 -8 -4 -15 -1 -15 5 0 6 -6 11 -14 11 -7 0 -16 14 -20 31 -3 17 -21 44
-41 62 -19 17 -35 36 -35 44 0 7 -6 10 -14 7 -9 -3 -17 3 -21 16 -10 31 -46
70 -72 81 -14 5 -23 17 -23 30 0 13 -8 23 -21 26 -11 3 -18 11 -15 18 3 8 -2
16 -11 19 -8 4 -13 13 -9 21 3 9 -5 24 -19 37 -14 12 -23 28 -21 35 3 7 1 15
-4 18 -6 4 -10 15 -10 26 0 10 -6 19 -14 19 -8 0 -15 16 -19 41 -3 23 -10 45
-15 48 -9 5 -41 113 -44 149 -1 6 -5 12 -10 12 -4 0 -8 9 -8 19 0 11 -4 22
-10 26 -5 3 -7 12 -3 20 3 9 1 21 -5 28 -20 23 -49 227 -32 227 3 0 5 37 4 83
0 52 6 103 17 139 10 31 15 65 12 76 -2 11 0 29 6 40 8 15 8 28 -1 47 -8 18
-9 32 -2 43 6 9 10 61 9 116 -2 84 1 101 16 114 20 18 16 61 -8 75 -15 9 -18
53 -3 62 16 10 42 -16 35 -34 -4 -12 -3 -13 5 -5 16 16 1 43 -26 50 -26 7 -32
32 -12 52 10 10 10 17 0 32 -8 14 -9 20 -1 20 7 0 9 10 5 25 -4 14 -3 25 2 25
4 0 14 21 21 48 9 28 16 40 18 30 3 -10 8 -18 13 -18 5 0 7 7 4 15 -4 8 -1 15
5 15 6 0 11 9 11 20 0 22 10 26 27 9 8 -8 13 -5 18 11 5 16 10 19 20 10 10 -8
15 -7 19 8 8 23 64 22 82 -2 13 -19 44 -21 44 -3 0 8 3 8 8 1 4 -6 14 -13 23
-16 29 -11 31 -88 4 -88 -11 0 -12 -6 -6 -22 8 -25 8 -95 -1 -104 -4 -3 -9 4
-13 15 -3 12 -12 21 -19 21 -14 0 -46 -51 -46 -74 0 -20 -7 -20 -27 0 -12 11
-13 18 -4 27 8 8 11 8 11 -2 0 -7 4 -9 10 -6 18 11 11 35 -10 35 -11 0 -20 5
-20 10 0 6 -4 10 -10 10 -5 0 -7 -14 -5 -30 3 -26 1 -30 -15 -25 -25 8 -34
-10 -15 -29 8 -8 11 -17 6 -20 -5 -4 -18 5 -28 20 -19 25 -19 25 -41 6 -18
-16 -20 -24 -13 -43 7 -18 10 -19 10 -6 1 9 5 17 10 17 4 0 8 -22 8 -50 0 -48
-1 -50 -28 -50 -26 0 -29 -3 -29 -35 0 -24 5 -35 14 -35 8 0 16 4 18 10 2 6 8
6 18 0 13 -8 13 -10 -1 -10 -9 0 -19 -9 -22 -20 -3 -13 -1 -18 5 -13 6 3 17
-2 24 -12 8 -10 17 -16 20 -12 4 4 1 13 -6 22 -7 9 -10 18 -6 22 3 3 6 1 6 -5
0 -24 21 -11 35 21 12 26 14 28 15 10 0 -25 15 -39 25 -23 3 5 11 10 17 10 6
0 5 -7 -3 -17 -13 -15 -12 -16 9 -11 12 4 22 2 22 -3 0 -5 5 -9 11 -9 6 0 8 9
4 21 -5 15 -3 20 6 17 8 -3 15 -17 17 -31 4 -31 22 -37 22 -7 0 23 15 27 24 5
3 -8 9 -15 13 -14 4 1 18 1 31 0 30 -1 28 -21 -2 -21 -28 0 -44 -30 -22 -42 8
-5 22 -16 31 -25 14 -14 18 -14 26 -2 6 9 4 18 -5 24 -11 9 -9 13 11 22 23 11
25 10 20 -7 -3 -11 -2 -22 3 -25 4 -3 10 5 14 18 5 18 8 20 16 7 5 -8 10 -11
10 -7 0 5 7 1 16 -7 8 -9 22 -16 29 -16 15 0 35 -30 35 -52 0 -7 -9 -2 -19 11
l-19 24 -11 -21 c-15 -28 -14 -33 5 -25 13 5 15 -2 12 -43 -2 -27 2 -51 7 -53
12 -5 34 -33 35 -44 0 -5 -13 2 -30 16 -16 14 -35 28 -42 31 -10 5 -10 7 0 12
18 9 15 23 -6 21 -21 -1 -22 -38 -2 -62 12 -14 10 -15 -14 -11 -21 4 -26 1
-24 -12 1 -9 -1 -23 -5 -29 -5 -9 -3 -13 7 -13 9 0 15 5 13 11 -1 6 4 14 10
16 8 3 13 -4 13 -16 0 -12 5 -21 10 -21 6 0 10 -7 10 -15 0 -9 -9 -15 -21 -15
-17 0 -19 -3 -10 -14 9 -11 9 -16 -1 -22 -22 -14 -51 -15 -60 -2 -5 10 -8 8
-8 -4 0 -10 7 -18 16 -18 18 0 14 -24 -4 -26 -44 -5 -46 -6 -22 -13 21 -6 25
-13 26 -44 1 -30 -3 -37 -17 -37 -11 0 -19 -5 -19 -11 0 -6 6 -9 14 -6 8 3 17
-1 20 -8 3 -10 -1 -14 -12 -13 -44 3 -50 -1 -49 -38 1 -47 -30 -75 -52 -47
-13 17 -13 17 -7 -2 9 -24 9 -22 7 -64 l-1 -34 -23 21 c-27 26 -37 28 -37 7 0
-8 9 -19 21 -26 l21 -11 -21 -19 c-25 -23 -31 -80 -6 -59 19 15 25 0 21 -50
-3 -45 12 -80 36 -80 22 0 23 -13 3 -30 -20 -17 -19 -28 7 -55 24 -25 50 -23
41 3 -5 11 -2 14 9 9 12 -4 14 -1 11 14 -3 10 -9 19 -13 19 -5 0 -6 9 -3 20 4
13 0 20 -10 20 -8 0 -17 11 -19 25 -3 14 -2 25 2 25 4 0 12 11 18 25 10 23 9
25 -11 25 l-22 1 23 18 c12 11 22 24 22 30 0 6 10 11 22 11 l22 0 -23 21 c-19
18 -20 23 -8 32 8 7 18 26 22 42 6 26 8 27 14 11 11 -29 24 -2 16 33 -6 26 -3
30 29 41 20 6 39 9 44 6 4 -2 13 4 20 14 7 12 8 21 2 25 -18 11 -10 27 11 22
17 -5 20 -2 16 14 -4 14 0 19 13 19 25 0 36 19 16 26 -19 7 -22 35 -3 31 6 -1
15 -9 18 -17 4 -10 9 -4 13 17 9 38 26 44 26 9 0 -25 25 -43 35 -26 4 6 -1 10
-10 10 -10 0 -15 9 -14 28 1 15 -2 35 -6 45 -6 14 -4 16 10 10 16 -5 17 -2 13
23 -3 16 -2 40 2 54 6 23 7 22 14 -12 13 -72 30 -53 29 35 0 9 5 17 11 16 32
-4 35 3 13 24 -21 19 -23 25 -13 43 12 21 12 21 35 3 13 -11 21 -22 17 -26 -3
-4 -12 2 -20 12 -7 10 -16 14 -19 8 -4 -5 16 -30 43 -54 54 -48 64 -71 28 -61
-20 5 -21 3 -10 -10 7 -9 12 -27 11 -40 -4 -45 1 -58 22 -58 17 0 20 -5 16
-21 -3 -12 -1 -30 6 -40 9 -15 7 -24 -11 -48 -16 -22 -20 -39 -17 -63 5 -31 5
-31 -7 -10 -8 15 -18 22 -30 19 -11 -3 -18 0 -18 9 0 8 -5 14 -11 14 -5 0 -7
5 -4 10 3 5 -1 10 -10 10 -12 0 -15 -6 -10 -20 5 -15 2 -20 -12 -20 -29 1 -54
25 -47 46 6 18 6 18 -8 0 -19 -25 -40 -12 -32 20 7 26 -13 35 -22 9 -4 -8 -12
-15 -20 -15 -19 0 -18 -19 1 -26 18 -7 20 -25 3 -21 -9 1 -13 -14 -14 -48 -1
-69 -3 -73 -19 -51 -14 18 -15 16 -15 -26 0 -25 3 -60 6 -77 6 -28 8 -30 20
-14 10 14 15 15 25 6 9 -9 8 -15 -5 -28 -9 -9 -16 -20 -16 -25 0 -5 -7 -10
-16 -12 -14 -3 -13 -6 4 -25 11 -13 26 -23 35 -23 18 0 30 -14 20 -23 -3 -4
-14 -2 -24 4 -13 7 -19 6 -19 -1 0 -6 11 -15 25 -22 22 -10 23 -13 12 -37 -17
-36 -10 -78 14 -84 19 -5 27 -41 10 -51 -12 -8 -1 -56 13 -53 6 1 10 -8 9 -21
-2 -13 3 -22 11 -22 16 0 26 21 26 56 0 29 16 32 23 4 3 -11 1 -20 -4 -20 -4
0 -6 -7 -3 -15 5 -12 10 -13 20 -4 9 7 14 8 14 1 0 -5 -6 -12 -14 -15 -9 -4
-12 -14 -9 -26 5 -18 1 -21 -26 -21 -28 0 -31 -3 -31 -31 0 -18 4 -28 10 -24
6 4 8 10 6 14 -3 4 -1 13 4 21 7 11 13 9 30 -11 13 -15 20 -19 19 -9 -4 37 2
61 12 54 6 -3 15 0 20 7 4 7 11 10 15 6 4 -4 -2 -14 -14 -23 -24 -16 -30 -36
-10 -32 7 2 13 -3 12 -9 -1 -7 -2 -22 -3 -33 -1 -18 -2 -18 -31 -2 -23 13 -32
14 -42 4 -9 -9 -7 -12 15 -12 32 0 36 -16 7 -25 -18 -6 -18 -8 -5 -21 18 -18
20 -41 3 -46 -8 -3 -7 -11 5 -28 9 -14 17 -21 17 -17 0 4 9 3 20 -3 11 -6 20
-20 20 -32 0 -17 -2 -18 -15 -8 -9 7 -18 10 -21 7 -8 -7 87 -143 98 -139 5 1
7 -2 3 -8 -3 -6 -11 -8 -16 -5 -5 4 -9 1 -9 -4 0 -8 254 -11 835 -11 l835 0 0
1300 0 1300 -661 0 -660 0 6 -22 c6 -17 4 -20 -10 -14 -13 4 -16 2 -11 -9 8
-21 -6 -19 -27 5 -27 32 -54 26 -61 -15 -5 -26 -12 -35 -26 -35 -11 0 -20 -4
-20 -10 0 -5 -4 -10 -10 -10 -5 0 -9 4 -7 9 3 13 -55 101 -67 101 -7 0 -17 -5
-23 -11 -8 -8 -13 -8 -17 0 -4 6 -21 11 -38 11 -25 0 -28 -3 -19 -14 9 -11 8
-15 -4 -20 -9 -3 -14 -2 -11 2 2 4 0 14 -5 22 -7 12 -10 11 -15 -7 -4 -13 -11
-23 -16 -23 -6 0 -8 9 -5 19 3 15 0 19 -14 18 -16 -1 -19 -6 -13 -30 5 -23 3
-28 -7 -22 -34 20 -39 27 -28 41 9 11 5 14 -20 14 -23 0 -30 -4 -25 -12 6 -10
4 -10 -8 0 -11 9 -18 10 -23 2 -3 -5 -11 -10 -16 -10 -6 0 -7 5 -4 10 4 7 -57
10 -175 10 -104 0 -179 -4 -176 -9 3 -5 0 -11 -8 -14 -7 -3 -16 -24 -20 -46
-7 -45 -8 -46 -37 -31 -15 9 -19 7 -19 -5 0 -9 -16 -22 -34 -30 -19 -8 -40
-23 -45 -32 -10 -17 -10 -16 -11 2 -1 18 -2 18 -10 -2 -8 -20 -32 -29 -62 -24
-5 0 -8 -5 -8 -11 0 -9 -3 -9 -9 1 -6 9 -5 24 0 39 6 16 6 29 -2 38 -9 11 -8
14 5 14 18 0 22 25 5 36 -8 5 -6 10 5 16 20 11 21 38 0 38 -8 0 -12 5 -9 10 4
6 -18 10 -59 10 l-66 0 0 -1300z m620 1254 c0 -8 -4 -12 -10 -9 -5 3 -10 10
-10 16 0 5 5 9 10 9 6 0 10 -7 10 -16z m380 1 c0 -9 -9 -15 -21 -15 -18 0 -19
2 -9 15 7 8 16 15 21 15 5 0 9 -7 9 -15z m210 0 c0 -8 -4 -15 -10 -15 -5 0
-10 7 -10 15 0 8 5 15 10 15 6 0 10 -7 10 -15z m-413 -37 c-3 -8 -6 -5 -6 6
-1 11 2 17 5 13 3 -3 4 -12 1 -19z m53 3 c0 -5 -7 -11 -14 -14 -10 -4 -13 -1
-9 9 6 15 23 19 23 5z m58 -8 c-10 -2 -18 -11 -18 -18 0 -9 -6 -12 -15 -9 -20
8 3 34 30 32 17 0 17 -1 3 -5z m242 -48 c0 -8 -4 -15 -10 -15 -5 0 -7 7 -4 15
4 8 8 15 10 15 2 0 4 -7 4 -15z m-280 -5 c0 -5 -5 -10 -11 -10 -5 0 -7 5 -4
10 3 6 8 10 11 10 2 0 4 -4 4 -10z m756 -115 c-6 -24 -26 -36 -26 -15 0 6 5
10 10 10 6 0 10 10 10 22 0 12 3 19 6 15 4 -3 4 -18 0 -32z m64 -12 c14 29 50
38 50 12 0 -8 2 -15 4 -15 2 0 11 -3 20 -6 11 -4 16 -1 16 10 0 17 15 22 24 7
10 -16 -6 -42 -30 -52 -19 -6 -24 -16 -24 -42 0 -18 4 -37 9 -42 5 -6 12 -20
15 -31 5 -17 1 -23 -16 -27 -13 -4 -25 -6 -27 -6 -2 0 -7 -4 -11 -11 -9 -14
-60 -23 -60 -10 0 5 -5 10 -11 10 -14 0 -39 25 -39 39 0 6 -4 11 -10 11 -5 0
-10 7 -10 15 0 8 -5 15 -11 15 -6 0 -8 -7 -5 -16 3 -8 2 -13 -3 -9 -5 3 -11 2
-13 -2 -4 -10 -85 -73 -92 -73 -3 0 -6 7 -6 15 0 8 -4 15 -10 15 -5 0 -10 -5
-10 -11 0 -5 -4 -7 -10 -4 -5 3 -10 11 -10 16 0 6 4 8 9 5 5 -4 17 14 27 39
16 44 27 54 38 36 9 -13 66 10 66 27 0 9 -7 11 -19 7 -11 -3 -22 -1 -26 5 -3
5 0 10 8 10 8 0 22 9 32 20 20 22 61 27 68 8 3 -8 6 -6 6 5 1 10 9 30 19 45
l17 26 6 -34 5 -35 14 28z m183 -50 c5 -26 4 -26 -9 -9 -7 10 -11 23 -8 27 8
14 11 11 17 -18z m-46 -36 c11 4 14 2 11 -8 -3 -8 -12 -15 -20 -17 -19 -4 -33
32 -21 50 6 9 9 6 11 -9 2 -15 8 -20 19 -16z m-867 -77 c0 -22 -4 -40 -10 -40
-5 0 -10 18 -10 40 0 22 5 40 10 40 6 0 10 -18 10 -40z m-50 10 c0 -5 -4 -10
-10 -10 -5 0 -10 5 -10 10 0 6 5 10 10 10 6 0 10 -4 10 -10z m527 -12 c-3 -8
-6 -5 -6 6 -1 11 2 17 5 13 3 -3 4 -12 1 -19z m198 -48 c10 -11 13 -20 7 -20
-6 0 -12 5 -14 11 -2 7 -12 7 -31 0 -31 -12 -35 -5 -9 15 23 18 26 17 47 -6z
m-715 -9 c0 -5 -7 -16 -15 -25 -8 -8 -15 -21 -16 -28 0 -8 -2 -9 -5 -2 -6 15
13 64 26 64 5 0 10 -4 10 -9z m68 -56 c-7 -7 -12 -6 -15 1 -2 6 -15 9 -28 6
-15 -2 -25 0 -25 7 0 6 9 11 20 11 11 0 20 5 20 12 0 6 8 3 19 -8 13 -13 15
-22 9 -29z m725 -14 c4 0 7 -19 7 -41 0 -23 5 -43 13 -45 17 -7 19 -71 2 -85
-8 -7 -19 -8 -26 -4 -8 5 -7 9 4 16 19 10 12 38 -9 38 -20 0 -18 -85 4 -131
18 -41 32 -50 32 -22 0 15 2 14 15 -4 8 -12 12 -28 9 -37 -11 -28 4 -17 20 15
8 16 12 37 9 45 -8 22 21 17 36 -7 11 -19 11 -21 -4 -15 -11 4 -15 2 -12 -6 2
-7 10 -12 16 -11 6 2 11 -4 11 -12 0 -8 7 -15 15 -15 8 0 15 -4 15 -8 0 -16
40 -11 40 6 1 16 2 16 14 0 7 -10 27 -21 45 -24 27 -6 31 -4 31 15 0 11 5 21
10 21 6 0 9 -6 8 -12 -2 -7 4 -11 12 -9 49 13 63 13 71 0 5 -8 3 -17 -4 -22
-7 -5 -2 -7 13 -3 14 3 36 6 49 6 20 0 21 2 11 15 -7 8 -8 15 -2 15 5 0 15 -7
22 -15 7 -8 22 -15 33 -15 18 0 17 -3 -9 -25 -26 -23 -27 -27 -13 -38 11 -8
15 -26 14 -57 -3 -70 -4 -72 -19 -67 -19 8 -25 -11 -15 -47 10 -35 5 -43 -16
-26 -10 8 -13 20 -9 34 6 18 5 19 -8 8 -17 -13 -22 -68 -7 -77 5 -4 9 -11 9
-16 0 -6 -5 -7 -10 -4 -6 4 -18 4 -27 1 -12 -5 -13 -9 -3 -22 7 -8 19 -13 26
-10 6 2 20 -2 31 -10 16 -14 14 -14 -26 -8 -34 5 -42 3 -39 -7 3 -8 13 -14 24
-14 10 0 25 -11 32 -24 10 -20 10 -26 -5 -36 -20 -15 -33 -4 -33 28 0 24 -19
21 -30 -5 -6 -16 -9 -18 -9 -7 -1 9 -7 21 -13 27 -10 8 -13 3 -13 -19 0 -20 5
-29 15 -29 12 0 15 -8 12 -37 -4 -31 -6 -34 -17 -20 -9 12 -14 14 -23 5 -17
-17 -15 -31 3 -24 8 3 16 0 17 -7 0 -7 2 -16 2 -22 1 -5 6 -17 10 -25 6 -9 0
-6 -14 5 l-23 20 7 -40 c5 -22 9 -56 9 -75 2 -30 6 -35 30 -38 15 -2 27 -7 27
-12 0 -8 -28 -40 -35 -40 -17 0 -35 16 -35 31 0 17 -11 24 -32 20 -5 0 -8 12
-8 29 0 22 -4 28 -15 24 -8 -4 -17 1 -21 10 -3 9 -15 16 -25 16 -14 0 -20 -10
-25 -40 -5 -29 -15 -46 -37 -62 -29 -21 -30 -21 -43 -3 -8 10 -14 32 -14 48 0
20 -6 30 -20 34 -11 3 -20 12 -20 19 0 8 -15 16 -37 20 -36 6 -38 7 -38 45 0
42 11 53 17 17 2 -12 9 -23 16 -26 13 -4 9 14 -11 56 -9 18 -8 25 3 32 12 8
10 10 -8 10 -15 0 -21 -4 -16 -12 5 -8 2 -9 -10 -5 -10 4 -21 7 -25 7 -6 0
-10 21 -12 68 -1 12 -5 22 -10 22 -5 0 -9 7 -9 15 0 8 -5 15 -11 15 -6 0 -9
-7 -5 -15 3 -8 1 -15 -4 -15 -6 0 -11 5 -11 10 -1 6 -2 15 -3 20 0 6 -8 15
-16 20 -13 8 -13 13 -2 30 12 20 11 20 -8 10 -18 -9 -20 -8 -20 15 0 14 -5 25
-11 25 -6 0 -8 7 -5 16 4 10 2 14 -6 11 -16 -5 -48 10 -48 24 0 6 8 8 18 5 11
-4 21 2 28 19 11 23 10 24 -8 14 -11 -6 -21 -9 -22 -7 -38 58 -38 58 -10 58
16 0 24 5 21 13 -2 6 -14 11 -25 9 -17 -2 -22 2 -22 17 0 23 16 29 23 9 2 -7
8 -9 13 -5 4 4 3 17 -4 27 -15 24 -16 57 -2 65 6 3 10 1 10 -4 0 -6 5 -11 11
-11 6 0 8 9 4 20 -9 28 10 25 33 -5 l20 -25 -1 47 c0 27 -3 39 -5 29 -3 -15
-6 -16 -13 -5 -6 9 -12 10 -16 4 -5 -5 -16 -11 -25 -13 -20 -3 -24 26 -9 56 5
9 12 25 15 35 10 33 36 20 37 -20 1 -22 3 -29 6 -18 3 11 9 24 14 30 14 14 11
25 -6 25 -8 0 -15 9 -15 20 0 11 -4 20 -10 20 -5 0 -10 -5 -10 -11 0 -5 -5 -7
-10 -4 -6 3 -13 -1 -16 -9 -9 -24 -23 -19 -34 10 -6 14 -14 22 -20 19 -12 -8
-13 5 -1 24 5 8 11 9 15 3 6 -9 35 11 87 61 11 9 26 17 34 17 8 0 21 13 30 29
14 28 33 33 88 22z m-733 -27 c0 -8 -4 -12 -10 -9 -5 3 -10 10 -10 16 0 5 5 9
10 9 6 0 10 -7 10 -16z m-10 -54 c0 -5 -7 -7 -15 -4 -8 4 -15 8 -15 10 0 2 7
4 15 4 8 0 15 -4 15 -10z m530 -20 c0 -5 -4 -10 -10 -10 -5 0 -10 5 -10 10 0
6 5 10 10 10 6 0 10 -4 10 -10z m-477 -25 c-3 -9 -8 -14 -10 -11 -3 3 -2 9 2
15 9 16 15 13 8 -4z m-633 -84 c-6 -12 -16 -18 -25 -15 -22 9 -18 24 5 24 14
0 20 7 21 23 1 16 3 17 6 5 2 -9 -1 -26 -7 -37z m520 -1 c0 -5 -4 -10 -10 -10
-5 0 -10 5 -10 10 0 6 5 10 10 10 6 0 10 -4 10 -10z m17 -12 c-3 -8 -6 -5 -6
6 -1 11 2 17 5 13 3 -3 4 -12 1 -19z m568 1 c4 -11 4 -23 1 -26 -3 -4 -6 1 -6
10 0 10 -4 17 -10 17 -5 0 -10 5 -10 10 0 18 19 10 25 -11z m225 11 c0 -5 -4
-10 -10 -10 -5 0 -10 5 -10 10 0 6 5 10 10 10 6 0 10 -4 10 -10z m55 0 c3 -5
-3 -10 -14 -10 -12 0 -21 5 -21 10 0 6 6 10 14 10 8 0 18 -4 21 -10z m-1362
-70 c-3 -12 -8 -19 -11 -16 -5 6 5 36 12 36 2 0 2 -9 -1 -20z m67 -25 c0 -8
-4 -15 -10 -15 -5 0 -7 7 -4 15 4 8 8 15 10 15 2 0 4 -7 4 -15z m990 -15 c0
-5 -2 -10 -4 -10 -3 0 -8 5 -11 10 -3 6 -1 10 4 10 6 0 11 -4 11 -10z m-922
-23 c2 -12 -1 -15 -12 -11 -19 7 -22 38 -3 32 6 -3 13 -12 15 -21z m1745 3 c3
-11 1 -23 -4 -26 -5 -3 -9 -1 -9 5 0 5 -3 16 -6 25 -3 9 -2 16 4 16 5 0 12 -9
15 -20z m-1443 -41 c0 -11 -4 -17 -10 -14 -5 3 -10 15 -10 26 0 11 5 17 10 14
6 -3 10 -15 10 -26z m54 24 c-5 -5 -12 -12 -16 -18 -4 -6 -8 -2 -8 8 0 9 7 17
17 17 9 0 12 -3 7 -7z m555 -56 c1 -5 -6 -1 -15 7 -8 9 -12 21 -8 28 5 8 10 6
15 -8 4 -10 8 -23 8 -27z m841 -18 c0 -14 -17 -10 -23 5 -4 10 -1 13 9 9 7 -3
14 -9 14 -14z m-1585 -29 c-21 -23 -35 -26 -35 -6 0 15 14 24 39 25 11 1 10
-4 -4 -19z m-15 -40 c0 -5 -8 -10 -17 -10 -15 0 -16 2 -3 10 19 12 20 12 20 0z
m110 0 c0 -5 -5 -10 -11 -10 -5 0 -7 5 -4 10 3 6 8 10 11 10 2 0 4 -4 4 -10z
m-30 -15 c0 -8 -4 -15 -9 -15 -5 0 -17 -3 -27 -7 -16 -6 -15 -4 2 14 23 26 34
28 34 8z m38 -35 c-14 -21 -38 -27 -38 -9 0 5 5 7 10 4 6 -3 13 1 16 9 3 9 10
16 15 16 5 0 4 -9 -3 -20z m135 3 c-7 -2 -13 -11 -13 -19 0 -9 -4 -12 -10 -9
-19 12 -10 35 13 34 12 0 16 -3 10 -6z m-248 -73 c3 -5 1 -10 -4 -10 -6 0 -11
5 -11 10 0 6 2 10 4 10 3 0 8 -4 11 -10z m235 6 c0 -3 -4 -8 -10 -11 -5 -3
-10 -1 -10 4 0 6 5 11 10 11 6 0 10 -2 10 -4z m-280 -40 c0 -7 -7 -19 -15 -26
-10 -9 -15 -9 -15 -1 0 6 6 11 13 12 10 0 10 2 0 6 -18 7 -16 23 2 23 8 0 15
-6 15 -14z m50 -35 c0 -5 -7 -11 -14 -14 -10 -4 -13 -1 -9 9 6 15 23 19 23 5z
m1480 -1 c0 -5 -2 -10 -4 -10 -3 0 -8 5 -11 10 -3 6 -1 10 4 10 6 0 11 -4 11
-10z m-1450 -10 c0 -5 -5 -10 -11 -10 -5 0 -7 5 -4 10 3 6 8 10 11 10 2 0 4
-4 4 -10z m-20 -24 c0 -3 -4 -8 -10 -11 -5 -3 -10 -1 -10 4 0 6 5 11 10 11 6
0 10 -2 10 -4z m220 -21 c0 -14 -4 -25 -9 -25 -4 0 -6 11 -3 25 2 14 6 25 8
25 2 0 4 -11 4 -25z m-370 -159 c0 -11 -19 -15 -25 -6 -3 5 1 10 9 10 9 0 16
-2 16 -4z m1510 -56 c0 -5 -5 -10 -11 -10 -5 0 -7 5 -4 10 3 6 8 10 11 10 2 0
4 -4 4 -10z m-1359 -23 c-10 -9 -11 -8 -5 6 3 10 9 15 12 12 3 -3 0 -11 -7
-18z m1039 -7 c0 -5 -5 -10 -11 -10 -5 0 -7 5 -4 10 3 6 8 10 11 10 2 0 4 -4
4 -10z m341 -31 c-9 -22 -10 -22 -10 -3 -1 11 2 24 6 27 12 12 14 0 4 -24z
m-1341 11 c0 -5 -5 -10 -11 -10 -5 0 -7 5 -4 10 3 6 8 10 11 10 2 0 4 -4 4
-10z m1010 -21 c0 -5 -4 -9 -10 -9 -5 0 -10 7 -10 16 0 8 5 12 10 9 6 -3 10
-10 10 -16z m200 5 c0 -9 -28 -34 -38 -34 -6 0 -8 9 -5 20 5 17 43 30 43 14z
m110 -4 c0 -5 -2 -10 -4 -10 -3 0 -8 5 -11 10 -3 6 -1 10 4 10 6 0 11 -4 11
-10z m-1300 -15 c0 -8 -4 -15 -10 -15 -5 0 -10 -10 -10 -22 0 -12 -3 -19 -6
-15 -9 8 6 67 17 67 5 0 9 -7 9 -15z m1037 -61 c2 -29 -1 -34 -20 -34 -18 0
-19 2 -7 10 12 7 12 13 4 27 -8 13 -8 21 0 29 15 16 20 9 23 -32z m-1097 7
c-11 -22 -25 -27 -35 -12 -3 5 4 12 15 16 11 3 20 11 20 17 0 6 3 9 6 6 3 -4
1 -16 -6 -27z m128 23 c12 -4 22 -10 22 -14 0 -5 -10 -6 -21 -3 -19 5 -20 3
-14 -18 7 -23 7 -24 -9 -4 -16 21 -21 45 -8 45 4 0 17 -3 30 -6z m1125 -9 c4
-8 2 -17 -3 -20 -6 -4 -10 -4 -10 -1 0 2 -3 11 -6 20 -3 9 -2 16 4 16 5 0 12
-7 15 -15z m-40 -9 c3 -8 0 -19 -7 -25 -10 -9 -12 -6 -8 14 5 29 8 31 15 11z
m-953 -6 c0 -5 -5 -10 -11 -10 -5 0 -7 5 -4 10 3 6 8 10 11 10 2 0 4 -4 4 -10z
m-90 -20 c0 -5 7 -10 15 -10 8 0 15 -6 15 -14 0 -11 -5 -12 -25 -3 -24 12 -35
37 -15 37 6 0 10 -4 10 -10z m1239 3 c-1 -5 -1 -22 0 -40 1 -27 4 -30 24 -25
20 5 21 4 8 -11 -7 -9 -10 -17 -5 -17 4 0 3 -5 -4 -12 -17 -17 -15 -25 8 -31
14 -4 18 -11 14 -31 -2 -14 0 -26 6 -26 5 0 10 -4 10 -10 0 -5 -7 -7 -15 -4
-10 4 -13 2 -10 -8 3 -8 -2 -21 -11 -29 -10 -8 -15 -9 -12 -4 4 6 3 17 -2 25
-7 10 -9 1 -7 -27 1 -24 5 -43 10 -43 4 0 6 -10 6 -22 -1 -17 -2 -19 -6 -5 -2
9 -8 17 -13 17 -8 0 -8 -14 3 -50 2 -8 2 -12 0 -7 -3 4 -9 7 -14 7 -12 0 -12
-77 1 -85 10 -6 14 -65 4 -65 -14 0 -44 22 -39 29 8 13 -23 34 -40 27 -11 -4
-19 3 -25 20 -6 14 -14 22 -20 19 -5 -3 -10 1 -10 9 0 9 -4 16 -10 16 -5 0 -7
6 -4 14 3 9 -5 21 -20 31 -14 10 -26 24 -26 31 0 8 -7 17 -16 21 -15 5 -15 7
0 15 14 8 15 12 4 25 -19 23 -18 45 2 50 11 3 16 11 13 22 -2 10 3 23 11 30 9
8 16 20 16 27 0 8 5 14 10 14 6 0 10 -5 10 -11 0 -6 6 -9 14 -6 7 3 24 -2 36
-10 23 -16 23 -16 16 20 -4 22 -2 38 5 42 6 4 8 18 5 31 -5 17 -2 24 9 24 8 0
15 5 15 10 0 6 11 10 25 10 14 0 24 -3 24 -7z m-1326 -28 c-7 -21 -13 -19 -13
6 0 11 4 18 10 14 5 -3 7 -12 3 -20z m1092 15 c3 -5 -1 -10 -9 -10 -9 0 -16 5
-16 10 0 6 4 10 9 10 6 0 13 -4 16 -10z m-1495 -35 c0 -8 -9 -13 -20 -12 -23
1 -25 8 -8 25 13 13 28 7 28 -13z m380 -10 c0 -28 -15 -34 -24 -9 -10 25 -7
34 9 34 9 0 15 -9 15 -25z m190 14 c0 -5 5 -7 10 -4 6 3 10 2 10 -4 0 -5 -12
-11 -27 -13 -23 -2 -30 -11 -43 -50 -8 -27 -18 -48 -22 -48 -4 0 -8 19 -10 43
-2 23 -8 42 -15 42 -6 0 -15 3 -19 8 -4 4 2 7 12 7 11 0 25 -5 31 -11 9 -9 16
-8 27 4 9 9 16 20 16 26 0 6 7 11 15 11 8 0 15 -5 15 -11z m-233 -21 c-3 -8
-6 -5 -6 6 -1 11 2 17 5 13 3 -3 4 -12 1 -19z m70 -8 c-4 -17 -2 -20 13 -15
11 3 20 0 24 -10 7 -18 -14 -20 -38 -2 -11 8 -15 19 -10 30 9 24 17 21 11 -3z
m329 -17 c-10 -10 -19 5 -10 18 6 11 8 11 12 0 2 -7 1 -15 -2 -18z m851 5 c-3
-8 -6 -5 -6 6 -1 11 2 17 5 13 3 -3 4 -12 1 -19z m-1266 -39 c-5 -13 -10 -19
-10 -12 -1 15 10 45 15 40 3 -2 0 -15 -5 -28z m50 -9 c5 0 7 -10 5 -22 -3 -13
-5 -26 -5 -30 -1 -5 -5 -8 -9 -8 -5 0 -9 24 -9 53 0 28 2 42 4 30 3 -13 9 -23
14 -23z m211 2 c10 -18 13 -34 8 -37 -15 -9 -30 4 -30 26 0 10 -4 19 -10 19
-5 0 -10 7 -10 16 0 24 22 11 42 -24z m-564 -23 c4 -24 3 -24 -12 -4 -19 24
-20 38 -3 33 6 -3 13 -15 15 -29z m412 10 c0 -5 -4 -9 -10 -9 -5 0 -10 7 -10
16 0 8 5 12 10 9 6 -3 10 -10 10 -16z m50 6 c0 -8 -4 -15 -10 -15 -5 0 -10 7
-10 15 0 8 5 15 10 15 6 0 10 -7 10 -15z m60 -37 c0 -18 -2 -20 -9 -8 -6 8 -7
18 -5 22 9 14 14 9 14 -14z m110 -19 c0 -6 -4 -7 -10 -4 -5 3 -10 11 -10 16 0
6 5 7 10 4 6 -3 10 -11 10 -16z m-50 -9 c0 -5 -2 -10 -4 -10 -3 0 -8 5 -11 10
-3 6 -1 10 4 10 6 0 11 -4 11 -10z m-210 -15 c0 -8 -4 -15 -9 -15 -13 0 -22
16 -14 24 11 11 23 6 23 -9z m-13 -57 c-3 -8 -6 -5 -6 6 -1 11 2 17 5 13 3 -3
4 -12 1 -19z m193 -12 c0 -2 -7 -6 -15 -10 -8 -3 -15 -1 -15 4 0 6 7 10 15 10
8 0 15 -2 15 -4z m25 -44 c-3 -3 -11 0 -18 7 -9 10 -8 11 6 5 10 -3 15 -9 12
-12z m965 -42 c0 -5 -2 -10 -4 -10 -3 0 -8 5 -11 10 -3 6 -1 10 4 10 6 0 11
-4 11 -10z m20 -30 c0 -5 -2 -10 -4 -10 -3 0 -8 5 -11 10 -3 6 -1 10 4 10 6 0
11 -4 11 -10z m-960 -20 c0 -5 -5 -10 -11 -10 -5 0 -7 5 -4 10 3 6 8 10 11 10
2 0 4 -4 4 -10z m-110 -10 c0 -5 -4 -10 -10 -10 -5 0 -10 5 -10 10 0 6 5 10
10 10 6 0 10 -4 10 -10z m56 -5 c-5 -15 10 -53 26 -65 10 -8 -2 -51 -13 -45
-4 3 -5 13 -2 21 3 9 1 19 -6 23 -17 11 -27 81 -11 81 7 0 10 -7 6 -15z m174
-26 c0 -6 -4 -7 -10 -4 -5 3 -10 11 -10 16 0 6 5 7 10 4 6 -3 10 -11 10 -16z
m-77 -6 c-21 -8 -14 -25 7 -18 15 5 18 3 14 -9 -3 -8 -15 -16 -27 -18 -14 -2
-22 -10 -22 -22 0 -22 -20 -33 -30 -17 -3 6 -1 11 6 11 8 0 10 11 6 34 -6 41
-6 41 30 42 15 1 22 -1 16 -3z m990 -14 c6 -23 -1 -49 -13 -49 -10 0 -22 48
-15 60 10 16 22 11 28 -11z m-873 1 c0 -5 -7 -10 -15 -10 -8 0 -15 5 -15 10 0
6 7 10 15 10 8 0 15 -4 15 -10z m-260 -25 c-7 -9 -9 -19 -5 -23 4 -4 10 -1 12
5 6 18 25 -3 40 -45 10 -29 10 -33 -3 -28 -9 3 -26 9 -39 12 -19 5 -23 12 -22
37 2 32 13 57 24 57 3 0 0 -7 -7 -15z m1090 -13 c0 -15 -2 -15 -10 -2 -13 20
-13 33 0 25 6 -3 10 -14 10 -23z m70 -2 c0 -5 -4 -10 -10 -10 -5 0 -10 5 -10
10 0 6 5 10 10 10 6 0 10 -4 10 -10z m-85 -28 c-3 -3 -11 0 -18 7 -9 10 -8 11
6 5 10 -3 15 -9 12 -12z m82 -48 c-3 -3 -12 -4 -19 -1 -8 3 -5 6 6 6 11 1 17
-2 13 -5z m-1057 -38 c0 -2 -9 -6 -20 -9 -11 -3 -18 -1 -14 4 5 9 34 13 34 5z
m-60 -95 c0 -6 -4 -13 -10 -16 -5 -3 -10 1 -10 9 0 9 5 16 10 16 6 0 10 -4 10
-9z m40 -35 c0 -2 -7 -7 -16 -10 -8 -3 -12 -2 -9 4 6 10 25 14 25 6z m90 -120
c0 -3 -4 -8 -10 -11 -5 -3 -10 -1 -10 4 0 6 5 11 10 11 6 0 10 -2 10 -4z"/>
<path d="M1730 2305 c7 -8 16 -12 21 -9 13 8 1 24 -18 24 -13 0 -13 -3 -3 -15z"/>
<path d="M1677 2194 c-8 -8 3 -34 14 -34 5 0 9 9 9 20 0 19 -11 26 -23 14z"/>
<path d="M1483 2165 c-17 -19 -16 -25 2 -25 8 0 15 9 15 20 0 23 -1 24 -17 5z"/>
<path d="M1660 1800 c0 -19 3 -21 12 -12 9 9 9 15 0 24 -9 9 -12 7 -12 -12z"/>
<path d="M1626 1761 c-4 -5 3 -7 14 -4 23 6 26 13 6 13 -8 0 -17 -4 -20 -9z"/>
<path d="M1682 1739 c2 -7 10 -15 17 -17 8 -3 12 1 9 9 -2 7 -10 15 -17 17 -8
3 -12 -1 -9 -9z"/>
<path d="M1769 1663 c8 -30 31 -44 31 -19 0 9 -4 16 -10 16 -5 0 -10 7 -10 15
0 8 -4 15 -9 15 -5 0 -6 -12 -2 -27z"/>
<path d="M1931 1667 c-17 -17 -13 -37 9 -37 15 0 40 26 40 42 0 9 -39 5 -49
-5z"/>
<path d="M1997 1660 c-3 -11 -2 -20 3 -20 12 0 21 28 11 35 -5 2 -11 -4 -14
-15z"/>
<path d="M2107 1656 c-4 -10 -1 -19 9 -23 21 -8 26 1 11 22 -13 16 -14 16 -20
1z"/>
<path d="M1650 1644 c0 -8 5 -12 10 -9 6 3 10 10 10 16 0 5 -4 9 -10 9 -5 0
-10 -7 -10 -16z"/>
<path d="M2027 1619 c6 -6 9 -19 6 -28 -4 -14 -3 -14 6 -1 16 22 13 40 -6 40
-13 0 -14 -3 -6 -11z"/>
<path d="M1985 1590 c3 -5 8 -10 11 -10 2 0 4 5 4 10 0 6 -5 10 -11 10 -5 0
-7 -4 -4 -10z"/>
<path d="M2117 1593 c-3 -5 1 -14 9 -21 12 -11 14 -9 14 8 0 20 -14 27 -23 13z"/>
<path d="M2181 1573 c0 -6 -18 -17 -38 -24 -32 -10 -35 -13 -18 -19 11 -4 26
-4 34 0 8 4 22 5 32 3 11 -3 19 0 19 6 0 6 -4 11 -9 11 -5 0 -12 8 -14 18 -3
9 -5 12 -6 5z"/>
<path d="M2091 1493 c0 -25 1 -26 9 -8 12 27 12 35 0 35 -5 0 -10 -12 -9 -27z"/>
<path d="M2072 1430 c7 -11 21 -20 30 -20 16 0 16 2 -2 20 -11 11 -25 20 -30
20 -6 0 -5 -8 2 -20z"/>
<path d="M2008 1257 c-4 -18 -1 -24 9 -20 15 6 16 13 4 31 -6 10 -10 7 -13
-11z"/>
<path d="M1670 1260 c0 -5 5 -10 11 -10 5 0 7 5 4 10 -3 6 -8 10 -11 10 -2 0
-4 -4 -4 -10z"/>
<path d="M1685 1230 c-3 -5 -1 -10 4 -10 6 0 11 5 11 10 0 6 -2 10 -4 10 -3 0
-8 -4 -11 -10z"/>
<path d="M1853 1106 c9 -7 17 -18 17 -25 0 -6 10 -10 23 -10 16 1 17 3 5 6 -9
2 -20 13 -23 24 -4 10 -14 19 -23 19 -16 -1 -16 -2 1 -14z"/>
<path d="M1840 1035 c0 -15 6 -25 14 -25 8 0 13 8 11 18 -2 9 -4 20 -4 25 -2
20 -21 4 -21 -18z"/>
<path d="M1920 700 c0 -5 5 -10 11 -10 5 0 7 5 4 10 -3 6 -8 10 -11 10 -2 0
-4 -4 -4 -10z"/>
<path d="M1956 617 c3 -10 9 -15 12 -12 3 3 0 11 -7 18 -10 9 -11 8 -5 -6z"/>
<path d="M2101 454 c0 -11 3 -14 6 -6 3 7 2 16 -1 19 -3 4 -6 -2 -5 -13z"/>
<path d="M926 355 c4 -8 8 -15 10 -15 2 0 4 7 4 15 0 8 -4 15 -10 15 -5 0 -7
-7 -4 -15z"/>
<path d="M1115 2550 c-18 -8 -17 -9 8 -9 15 -1 27 4 27 9 0 12 -8 12 -35 0z"/>
<path d="M135 2420 c3 -5 8 -10 11 -10 2 0 4 5 4 10 0 6 -5 10 -11 10 -5 0 -7
-4 -4 -10z"/>
<path d="M406 2175 c-3 -10 -2 -23 4 -29 15 -15 24 1 13 26 -9 20 -10 20 -17
3z"/>
<path d="M395 2090 c-3 -5 -1 -18 4 -27 9 -15 10 -14 9 10 -3 30 -4 32 -13 17z"/>
<path d="M160 2060 c0 -5 5 -10 10 -10 6 0 10 5 10 10 0 6 -4 10 -10 10 -5 0
-10 -4 -10 -10z"/>
<path d="M162 1978 c-16 -16 -15 -28 2 -28 7 0 16 9 19 20 6 23 -3 26 -21 8z"/>
<path d="M274 1709 c-3 -6 -1 -16 5 -22 8 -8 11 -5 11 11 0 24 -5 28 -16 11z"/>
<path d="M400 1669 c0 -5 5 -7 10 -4 6 3 10 8 10 11 0 2 -4 4 -10 4 -5 0 -10
-5 -10 -11z"/>
<path d="M230 1650 c0 -5 7 -10 16 -10 8 0 12 5 9 10 -3 6 -10 10 -16 10 -5 0
-9 -4 -9 -10z"/>
<path d="M400 1610 c0 -11 4 -20 10 -20 5 0 6 8 3 18 -6 15 -5 15 10 3 19 -15
33 -9 22 8 -11 20 -45 13 -45 -9z"/>
<path d="M350 1611 c0 -6 5 -13 10 -16 6 -3 10 1 10 9 0 9 -4 16 -10 16 -5 0
-10 -4 -10 -9z"/>
<path d="M590 1599 c0 -11 5 -17 10 -14 6 3 10 13 10 21 0 8 -4 14 -10 14 -5
0 -10 -9 -10 -21z"/>
<path d="M804 1134 c3 -9 6 -18 6 -20 0 -2 4 -4 9 -4 5 0 7 9 4 20 -3 11 -10
20 -15 20 -6 0 -7 -7 -4 -16z"/>
<path d="M902 1111 c-11 -7 -11 -9 2 -14 10 -4 16 -1 16 8 0 17 -1 17 -18 6z"/>
<path d="M650 1045 c0 -8 5 -15 10 -15 6 0 10 7 10 15 0 8 -4 15 -10 15 -5 0
-10 -7 -10 -15z"/>
<path d="M301 964 c0 -11 3 -14 6 -6 3 7 2 16 -1 19 -3 4 -6 -2 -5 -13z"/>
<path d="M306 921 c9 -10 44 -11 44 -1 0 5 -11 9 -25 8 -13 -1 -22 -4 -19 -7z"/>
<path d="M626 893 c-3 -4 -6 -13 -6 -21 0 -11 3 -12 13 -3 8 6 17 8 20 4 4 -3
7 -2 7 4 0 13 -25 24 -34 16z"/>
<path d="M322 710 c0 -14 2 -19 5 -12 2 6 2 18 0 25 -3 6 -5 1 -5 -13z"/>
<path d="M590 717 c0 -10 -4 -15 -10 -12 -5 3 -10 -1 -10 -10 0 -9 5 -13 10
-10 6 4 10 -7 10 -24 0 -17 4 -31 8 -31 11 0 12 72 1 90 -7 13 -8 12 -9 -3z"/>
<path d="M490 690 c0 -19 11 -26 23 -14 8 8 -3 34 -14 34 -5 0 -9 -9 -9 -20z"/>
<path d="M510 565 c-10 -13 -9 -15 9 -15 12 0 21 6 21 15 0 8 -4 15 -9 15 -5
0 -14 -7 -21 -15z"/>
<path d="M761 394 c0 -11 3 -14 6 -6 3 7 2 16 -1 19 -3 4 -6 -2 -5 -13z"/>
<path d="M762 334 c9 -3 19 -15 22 -27 4 -18 4 -18 3 3 -1 17 -8 25 -22 27
-14 1 -15 0 -3 -3z"/>
<path d="M517 300 c7 -40 10 -46 20 -37 3 4 -1 22 -10 40 l-16 32 6 -35z"/>
</g>
</svg>
